# xmcd CD database file
#
# Track frame offsets:
#	150
#	16780
#	29110
#	43903
#	57158
#	73705
#	87938
#	108100
#	123358
#	141050
#	158448
#	180788
#	195143
#	210743
#
# Disc length: 2999 seconds
#
# Revision: 1
# Processed by: cddbd v1.4PL0 Copyright (c) Steve Scherf et al.
# Submitted via: CDex 1.50beta8
#
DISCID=ae0bb50e
DTITLE=Catfish Keith - Cherry Ball
DYEAR=1993
DGENRE=Blues
TTITLE0=Mr. Catfish's Advice
TTITLE1=Cool Can Of Beer
TTITLE2=Your Head's Too Big
TTITLE3=By And By I'm Going To See The King
TTITLE4=Cherry Ball
TTITLE5=Rabbits In Your Drawers
TTITLE6=Swim Deep, Pretty Mama
TTITLE7=Hawaiian Cowboy
TTITLE8=Deep Sea Moan
TTITLE9=Goin' Up North To Get My Hambone Boiled
TTITLE10=Ramblin' Blues
TTITLE11=Leave My Wife Alone
TTITLE12=Mama Don't You Sell It, Papa Don't You Give It Away
TTITLE13=That Ain't No Way For Me To Get Along
EXTD=YEAR: 1993
EXTT0=
EXTT1=
EXTT2=
EXTT3=
EXTT4=
EXTT5=
EXTT6=
EXTT7=
EXTT8=
EXTT9=
EXTT10=
EXTT11=
EXTT12=
EXTT13=
PLAYORDER=
